<?xml version="1.0" encoding="UTF-8" standalone="no"?>
<!-- Created with Inkscape (http://www.inkscape.org/) -->

<svg
   xmlns:dc="http://purl.org/dc/elements/1.1/"
   xmlns:cc="http://creativecommons.org/ns#"
   xmlns:rdf="http://www.w3.org/1999/02/22-rdf-syntax-ns#"
   xmlns:svg="http://www.w3.org/2000/svg"
   xmlns="http://www.w3.org/2000/svg"
   xmlns:sodipodi="http://sodipodi.sourceforge.net/DTD/sodipodi-0.dtd"
   xmlns:inkscape="http://www.inkscape.org/namespaces/inkscape"
   width="64px"
   height="64px"
   id="svg2985"
   version="1.1"
   inkscape:version="0.48.1 "
   inkscape:export-filename="C:\Users\Stuart\Pictures\4df.png"
   inkscape:export-xdpi="1440"
   inkscape:export-ydpi="1440"
   sodipodi:docname="New document 2">
  <defs
     id="defs2987" />
  <sodipodi:namedview
     id="base"
     pagecolor="#000000"
     bordercolor="#666666"
     borderopacity="1.0"
     inkscape:pageopacity="1"
     inkscape:pageshadow="2"
     inkscape:zoom="5.6568543"
     inkscape:cx="27.339571"
     inkscape:cy="30.645351"
     inkscape:current-layer="layer2"
     showgrid="true"
     inkscape:document-units="px"
     inkscape:grid-bbox="true"
     inkscape:window-width="1280"
     inkscape:window-height="738"
     inkscape:window-x="-8"
     inkscape:window-y="-8"
     inkscape:window-maximized="1" />
  <metadata
     id="metadata2990">
    <rdf:RDF>
      <cc:Work
         rdf:about="">
        <dc:format>image/svg+xml</dc:format>
        <dc:type
           rdf:resource="http://purl.org/dc/dcmitype/StillImage" />
        <dc:title></dc:title>
      </cc:Work>
    </rdf:RDF>
  </metadata>
  <g
     id="layer1"
     inkscape:label="Layer 1"
     inkscape:groupmode="layer"
     sodipodi:insensitive="true">
    <path
       sodipodi:type="arc"
       style="fill:#ffffff;fill-opacity:1;stroke:none"
       id="path2993"
       sodipodi:cx="18.181818"
       sodipodi:cy="23.818182"
       sodipodi:rx="26.363636"
       sodipodi:ry="26.363636"
       d="m 44.545454,23.818182 a 26.363636,26.363636 0 1 1 -52.727272,0 26.363636,26.363636 0 1 1 52.727272,0 z"
       transform="matrix(0.98620691,0,0,0.98620691,14.068965,8.5103443)" />
  </g>
  <g
     inkscape:groupmode="layer"
     id="layer2"
     inkscape:label="Layer">
    <path
       style="fill:#000000;stroke:none"
       d="m 33.1875,18.43474 c -4.074929,-0.159801 -13.732054,1.266687 -15.09375,3.375 -1.913537,2.962727 -1.735795,10.4375 -1.735795,10.4375 0,0 -6.666505,-0.322104 -7.017046,1.178977 -0.296694,1.270498 -0.03653,1.563475 2.348968,3.234385 1.806949,1.265668 5.965234,3.237749 9.838532,4.495729 4.149428,1.347663 8.943258,3.606549 14.351191,4.47886 8.638343,1.393383 16.524018,0.872588 16.123241,-5.740223 -0.125,-2.0625 -0.939156,-3.319075 -2.829546,-4.732955 -1.412462,-1.056423 -3.142045,-1.551137 -3.142045,-1.551137 0,0 -0.783422,-9.722983 -1.59375,-11.082386 -1.922706,-3.225524 -7.258522,-3.272727 -10.53125,-4 -0.204545,-0.04546 -0.447088,-0.0831 -0.71875,-0.09375 z"
       id="path2998"
       inkscape:connector-curvature="0"
       sodipodi:nodetypes="sscsssssscsss" />
    <path
       style="fill:#ffffff;stroke:none"
       d="m 20.872668,21.66051 c 6.399449,0.702913 21.082764,4.086358 21.195757,1.630227 0.09192,-1.998144 -5.805494,-3.43392 -5.805494,-3.43392 0,0 6.59358,1.97201 4.190181,3.449627 -2.035467,1.251411 -12.791266,-1.363131 -19.580444,-1.645934 z"
       id="path3005"
       inkscape:connector-curvature="0"
       sodipodi:nodetypes="cscsc" />
    <path
       style="fill:#ffffff;stroke:none"
       d="m 6.5843436,29.301117 c 0,0 4.8335304,-0.414319 8.7527904,2.130457 0.633647,0.411427 7.795645,3.860971 13.513575,5.431938 6.424817,1.765179 12.712825,1.99154 12.712825,1.99154 0,0 -5.314652,0.125448 -12.821325,-1.861133 C 25.273984,36.07608 16.165813,32.235153 15.167288,31.882573 12.046038,30.780456 6.5843436,29.301117 6.5843436,29.301117 z"
       id="path3009"
       inkscape:connector-curvature="0"
       sodipodi:nodetypes="csscssc" />
    <path
       style="fill:#ffffff;stroke:none"
       d="m 27.034091,32.386444 0.363636,-6.363636 8.136364,1.045455 -0.409092,6.636364 z"
       id="path3013"
       inkscape:connector-curvature="0"
       sodipodi:nodetypes="ccccc" />
    <rect
       style="fill:#ff0000;fill-opacity:1;stroke:none"
       id="rect3017"
       width="0.67450351"
       height="0.67450351"
       x="41.670891"
       y="-10.718674"
       transform="matrix(0.49487899,0.8689619,-0.69563731,0.71839316,0,0)" />
    <rect
       transform="matrix(0.49487899,0.8689619,-0.69563731,0.71839316,0,0)"
       y="-12.277079"
       x="42.122318"
       height="1.2472115"
       width="1.2472115"
       id="rect3019"
       style="fill:#ff0000;fill-opacity:1;stroke:none" />
    <rect
       style="fill:#ff0000;fill-opacity:1;stroke:none"
       id="rect3021"
       width="1.3235725"
       height="1.3235725"
       x="45.38155"
       y="-13.2806"
       transform="matrix(0.5391534,0.84220758,-0.65755633,0.75340539,0,0)" />
    <path
       style="fill:#ff0000;stroke:none"
       d="m 28.40625,26.55974 -0.71875,0.84375 -0.03125,0.15625 0.609375,0.05469 -0.05469,0.5625 -0.101562,-0.0078 -0.01597,0.144749 0.367541,0.03103 0.0078,-0.136719 -0.05469,-0.01563 0.04688,-0.542968 0.167969,0 0.0078,-0.1875 -0.167969,-0.01563 0.06641,-0.875 z m -0.07671,0.352273 -0.04829,0.522727 -0.372159,-0.02841 z"
       id="path3023"
       inkscape:connector-curvature="0"
       sodipodi:nodetypes="cccccccccccccccccccc" />
    <path
       sodipodi:nodetypes="csccc"
       inkscape:connector-curvature="0"
       id="path3028"
       d="m 45.433577,23.434023 c 0,0 0.421421,4.936168 0.690282,9.60138 0.167705,2.909972 0.338912,5.014796 0.338912,5.014796 -0.196539,-1.488767 -0.449149,-3.790772 -0.48355,-5.489503 -0.05911,-3.309587 -0.545641,-9.126667 -0.545644,-9.126673 z"
       style="fill:#ffffff;stroke:none" />
    <path
       style="fill:#ffffff;stroke:none"
       d="m 24.096591,31.261444 c 0,0 0.43277,0.204379 2.886363,0.994318 1.927143,0.620447 11.920455,1.829546 11.920455,1.829546 0,0 -4.825764,-0.350179 -7.820135,-0.792985 -4.65854,-0.688903 -6.986683,-2.030879 -6.986683,-2.030879 z"
       id="path3030"
       inkscape:connector-curvature="0"
       sodipodi:nodetypes="cscsc" />
  </g>
</svg>
