<?xml version="1.0" encoding="UTF-8" standalone="no"?>
<!-- Created with Inkscape (http://www.inkscape.org/) -->

<svg
   xmlns:dc="http://purl.org/dc/elements/1.1/"
   xmlns:cc="http://creativecommons.org/ns#"
   xmlns:rdf="http://www.w3.org/1999/02/22-rdf-syntax-ns#"
   xmlns:svg="http://www.w3.org/2000/svg"
   xmlns="http://www.w3.org/2000/svg"
   xmlns:sodipodi="http://sodipodi.sourceforge.net/DTD/sodipodi-0.dtd"
   xmlns:inkscape="http://www.inkscape.org/namespaces/inkscape"
   width="64px"
   height="64px"
   id="svg2985"
   version="1.1"
   inkscape:version="0.48.1 "
   inkscape:export-filename="C:\Users\Stuart\Pictures\4dfb.png"
   inkscape:export-xdpi="1440"
   inkscape:export-ydpi="1440"
   sodipodi:docname="stuhat.svg">
  <defs
     id="defs2987" />
  <sodipodi:namedview
     id="base"
     pagecolor="#000000"
     bordercolor="#666666"
     borderopacity="1.0"
     inkscape:pageopacity="0"
     inkscape:pageshadow="2"
     inkscape:zoom="10.39447"
     inkscape:cx="27.95812"
     inkscape:cy="29.831392"
     inkscape:current-layer="g2997"
     showgrid="true"
     inkscape:document-units="px"
     inkscape:grid-bbox="true"
     inkscape:window-width="1680"
     inkscape:window-height="988"
     inkscape:window-x="-8"
     inkscape:window-y="-8"
     inkscape:window-maximized="1"
     inkscape:snap-page="true"
     inkscape:snap-nodes="false" />
  <metadata
     id="metadata2990">
    <rdf:RDF>
      <cc:Work
         rdf:about="">
        <dc:format>image/svg+xml</dc:format>
        <dc:type
           rdf:resource="http://purl.org/dc/dcmitype/StillImage" />
        <dc:title />
      </cc:Work>
    </rdf:RDF>
  </metadata>
  <g
     inkscape:groupmode="layer"
     id="layer3"
     inkscape:label="brown-fauxbg"
     style="display:none">
    <rect
       style="fill:#774411;fill-opacity:0.94117647;stroke:none"
       id="rect3032"
       width="64"
       height="64"
       x="0"
       y="0" />
  </g>
  <g
     inkscape:label="facebook-blue-fauxbg"
     id="g3807"
     inkscape:groupmode="layer"
     style="display:none">
    <rect
       y="0"
       x="0"
       height="64"
       width="64"
       id="rect3809"
       style="fill:#3b5998;fill-opacity:1;stroke:none" />
  </g>
  <g
     style="display:none"
     inkscape:label="red-fauxbg"
     id="g3008"
     inkscape:groupmode="layer">
    <rect
       y="0"
       x="0"
       height="64"
       width="64"
       id="rect3010"
       style="fill:#d91f1f;fill-opacity:1;stroke:none" />
  </g>
  <g
     inkscape:groupmode="layer"
     id="g2997"
     inkscape:label="black-fauxbg"
     style="display:inline">
    <rect
       style="fill:#000000;fill-opacity:1;stroke:none"
       id="rect2999"
       width="64"
       height="64"
       x="0"
       y="0" />
  </g>
  <g
     id="layer1"
     inkscape:label="circle"
     inkscape:groupmode="layer">
    <path
       sodipodi:type="arc"
       style="fill:#ffffff;fill-opacity:1;stroke:none"
       id="path2993"
       sodipodi:cx="18.181818"
       sodipodi:cy="23.818182"
       sodipodi:rx="26.363636"
       sodipodi:ry="26.363636"
       d="m 44.545454,23.818182 a 26.363636,26.363636 0 1 1 -52.727272,0 26.363636,26.363636 0 1 1 52.727272,0 z"
       transform="matrix(0.98620691,0,0,0.98620691,14.068965,8.5103443)" />
  </g>
  <g
     inkscape:groupmode="layer"
     id="layer2"
     inkscape:label="design">
    <path
       style="fill:#000000;stroke:none"
       d="m 31.4375,18.4375 c -4.596935,0.194809 -12.152266,1.530226 -13.34375,3.375 -1.815471,2.810892 -1.76163,9.490492 -1.75,10.1875 1.977117,1.086796 6.770338,3.521639 11.46875,4.8125 6.424817,1.765179 13.75,2.03125 13.75,2.03125 0,0 -5.702366,0.168541 -13.25,-1.65625 -4.755708,-1.149788 -10.406431,-4.024044 -12.375,-4.9375 -1.069489,-0.03842 -6.2777003,-0.165883 -6.59375,1.1875 -0.296694,1.270498 -0.041748,1.54784 2.34375,3.21875 1.806949,1.265668 6.304535,3.802024 9.716634,5.135581 4.647628,1.816441 9.062933,2.960858 14.470866,3.833169 8.638343,1.393383 16.525777,0.894061 16.125,-5.71875 -0.125,-2.0625 -0.92211,-3.33612 -2.8125,-4.75 -1.270129,-0.949968 -2.640422,-1.381722 -2.9375,-1.46875 0.105416,2.106664 0.21875,4.375 0.21875,4.375 -0.158548,-1.20099 -0.349963,-2.921686 -0.4375,-4.4375 0,0 -0.02458,-0.325947 -0.03125,-0.40625 -0.09389,-1.130889 -0.805898,-9.418227 -1.5625,-10.6875 -1.922706,-3.225524 -7.258522,-3.272727 -10.53125,-4 -0.204545,-0.04546 -0.447088,-0.0831 -0.71875,-0.09375 -0.509366,-0.01997 -1.093295,-0.02783 -1.75,0 z"
       id="path2998"
       inkscape:connector-curvature="0"
       sodipodi:nodetypes="sscscscssassscccssccs" />
    <path
       style="fill:#ffffff;stroke:none"
       d="m 20.872668,21.66051 c 6.399449,0.702913 21.082764,4.086358 21.195757,1.630227 0.09192,-1.998144 -5.805494,-3.43392 -5.805494,-3.43392 0,0 6.59358,1.97201 4.190181,3.449627 -2.035467,1.251411 -12.791266,-1.363131 -19.580444,-1.645934 z"
       id="path3005"
       inkscape:connector-curvature="0"
       sodipodi:nodetypes="cscsc" />
    <path
       style="fill:#ffffff;stroke:none"
       d="M 27.40625 26.03125 L 27.03125 32.28125 C 27.015758 32.27649 26.983327 32.254693 26.96875 32.25 C 24.515157 31.460061 24.09375 31.25 24.09375 31.25 C 24.09375 31.25 26.43521 32.592347 31.09375 33.28125 C 34.088121 33.724056 38.90625 34.09375 38.90625 34.09375 C 38.90625 34.09375 36.873998 33.823458 35.125 33.59375 L 35.53125 27.0625 L 27.40625 26.03125 z "
       id="path3013" />
  </g>
  <g
     inkscape:groupmode="layer"
     id="layer5"
     inkscape:label="4d-pips"
     style="display:inline">
    <path
       sodipodi:nodetypes="ccccc"
       inkscape:connector-curvature="0"
       id="path3656"
       d="m 28.60103,28.313024 c 0.386754,-0.29025 0.659649,-0.626074 0.920886,-0.949194 0.138747,0.41099 0.366018,0.78433 0.61685,1.149279 -0.356029,0.28324 -0.644369,0.598125 -0.887353,0.936983 -0.168218,-0.401656 -0.352472,-0.769527 -0.650383,-1.137068 z"
       style="fill:#d40000;fill-opacity:1" />
    <path
       sodipodi:nodetypes="ccccc"
       inkscape:connector-curvature="0"
       id="path3660"
       d="m 32.45919,28.815035 c 0.386754,-0.290251 0.65965,-0.626074 0.920886,-0.949195 0.138748,0.410991 0.366019,0.78433 0.616852,1.14928 -0.35603,0.28324 -0.64437,0.598125 -0.887354,0.936982 -0.168219,-0.401655 -0.352471,-0.769526 -0.650384,-1.137067 z"
       style="fill:#d40000;fill-opacity:1" />
    <path
       sodipodi:nodetypes="ccccc"
       inkscape:connector-curvature="0"
       id="path3740"
       d="m 27.645988,28.489344 c 0.158433,-0.118898 0.270219,-0.256467 0.377234,-0.388831 0.05683,0.168359 0.149938,0.321295 0.252689,0.470795 -0.145846,0.116027 -0.263961,0.245016 -0.363499,0.383827 -0.06891,-0.164535 -0.144386,-0.315231 -0.266424,-0.465791 z"
       style="fill:#d40000;fill-opacity:1" />
    <path
       style="fill:#d40000;fill-opacity:1;display:inline"
       d="m 28.052529,27.936564 0.01266,-0.09731 0.08942,0.01164 0.02087,-0.160371 -0.447106,-0.05818 0.01473,-0.113152 0.578738,-0.666885 0.07902,0.01056 -0.09493,0.729563 0.136761,0.0178 -0.01473,0.113153 -0.136761,-0.0178 -0.02348,0.16003 0.07496,0.0098 -0.01266,0.09731 z m 0.197879,-0.821933 -0.36736,0.422767 0.307151,0.03996 z"
       id="path7104-8"
       inkscape:connector-curvature="0"
       sodipodi:nodetypes="cccccccccccccccccccc" />
  </g>
</svg>
