<?xml version="1.0" encoding="UTF-8" standalone="no"?>
<!-- Created with Inkscape (http://www.inkscape.org/) -->

<svg
   xmlns:dc="http://purl.org/dc/elements/1.1/"
   xmlns:cc="http://creativecommons.org/ns#"
   xmlns:rdf="http://www.w3.org/1999/02/22-rdf-syntax-ns#"
   xmlns:svg="http://www.w3.org/2000/svg"
   xmlns="http://www.w3.org/2000/svg"
   xmlns:sodipodi="http://sodipodi.sourceforge.net/DTD/sodipodi-0.dtd"
   xmlns:inkscape="http://www.inkscape.org/namespaces/inkscape"
   width="64px"
   height="64px"
   id="svg2985"
   version="1.1"
   inkscape:version="0.48.1 "
   inkscape:export-filename="C:\Users\Stuart\Pictures\4dfb.png"
   inkscape:export-xdpi="1440"
   inkscape:export-ydpi="1440"
   sodipodi:docname="stuhat.svg">
  <defs
     id="defs2987" />
  <sodipodi:namedview
     id="base"
     pagecolor="#000000"
     bordercolor="#666666"
     borderopacity="1.0"
     inkscape:pageopacity="0"
     inkscape:pageshadow="2"
     inkscape:zoom="3.9441263"
     inkscape:cx="34.788542"
     inkscape:cy="19.847652"
     inkscape:current-layer="layer3"
     showgrid="true"
     inkscape:document-units="px"
     inkscape:grid-bbox="true"
     inkscape:window-width="1280"
     inkscape:window-height="738"
     inkscape:window-x="-8"
     inkscape:window-y="-8"
     inkscape:window-maximized="1"
     inkscape:snap-page="true"
     inkscape:snap-nodes="false" />
  <metadata
     id="metadata2990">
    <rdf:RDF>
      <cc:Work
         rdf:about="">
        <dc:format>image/svg+xml</dc:format>
        <dc:type
           rdf:resource="http://purl.org/dc/dcmitype/StillImage" />
        <dc:title></dc:title>
      </cc:Work>
    </rdf:RDF>
  </metadata>
  <g
     inkscape:groupmode="layer"
     id="layer3"
     inkscape:label="fauxbg">
    <rect
       style="fill:#774411;stroke:none;fill-opacity:0.94117647"
       id="rect3032"
       width="64"
       height="64"
       x="0"
       y="0" />
  </g>
  <g
     inkscape:label="facebook-blue-fauxbg"
     id="g3807"
     inkscape:groupmode="layer"
     style="display:none">
    <rect
       y="0"
       x="0"
       height="64"
       width="64"
       id="rect3809"
       style="fill:#3b5998;fill-opacity:1;stroke:none" />
  </g>
  <g
     id="layer1"
     inkscape:label="Layer 1"
     inkscape:groupmode="layer">
    <path
       sodipodi:type="arc"
       style="fill:#ffffff;fill-opacity:1;stroke:none"
       id="path2993"
       sodipodi:cx="18.181818"
       sodipodi:cy="23.818182"
       sodipodi:rx="26.363636"
       sodipodi:ry="26.363636"
       d="m 44.545454,23.818182 a 26.363636,26.363636 0 1 1 -52.727272,0 26.363636,26.363636 0 1 1 52.727272,0 z"
       transform="matrix(0.98620691,0,0,0.98620691,14.068965,8.5103443)" />
  </g>
  <g
     inkscape:groupmode="layer"
     id="layer2"
     inkscape:label="Layer">
    <path
       style="fill:#000000;stroke:none"
       d="M 31.4375 18.4375 C 26.840565 18.632309 19.285234 19.967726 18.09375 21.8125 C 16.278279 24.623392 16.33212 31.302992 16.34375 32 C 18.320867 33.086796 23.114088 35.521639 27.8125 36.8125 C 34.237317 38.577679 41.5625 38.84375 41.5625 38.84375 C 41.5625 38.84375 35.860134 39.012291 28.3125 37.1875 C 23.556792 36.037712 17.906069 33.163456 15.9375 32.25 C 14.868011 32.211576 9.6597997 32.084117 9.34375 33.4375 C 9.047056 34.707998 9.302002 34.98534 11.6875 36.65625 C 13.494449 37.921918 17.657952 39.89827 21.53125 41.15625 C 25.680678 42.503913 30.467067 44.752689 35.875 45.625 C 44.513343 47.018383 52.400777 46.519061 52 39.90625 C 51.875 37.84375 51.07789 36.57013 49.1875 35.15625 C 47.917371 34.206282 46.547078 33.774528 46.25 33.6875 C 46.355416 35.794164 46.46875 38.0625 46.46875 38.0625 C 46.310202 36.86151 46.118787 35.140814 46.03125 33.625 C 46.03125 33.625 46.006667 33.299053 46 33.21875 C 45.906109 32.087861 45.194102 23.800523 44.4375 22.53125 C 42.514794 19.305726 37.178978 19.258523 33.90625 18.53125 C 33.701705 18.48579 33.459162 18.44815 33.1875 18.4375 C 32.678134 18.417525 32.094205 18.40967 31.4375 18.4375 z "
       id="path2998" />
    <path
       style="fill:#ffffff;stroke:none"
       d="m 20.872668,21.66051 c 6.399449,0.702913 21.082764,4.086358 21.195757,1.630227 0.09192,-1.998144 -5.805494,-3.43392 -5.805494,-3.43392 0,0 6.59358,1.97201 4.190181,3.449627 -2.035467,1.251411 -12.791266,-1.363131 -19.580444,-1.645934 z"
       id="path3005"
       inkscape:connector-curvature="0"
       sodipodi:nodetypes="cscsc" />
    <path
       style="fill:#ffffff;stroke:none"
       d="M 27.40625 26.03125 L 27.03125 32.28125 C 27.015758 32.27649 26.983327 32.254693 26.96875 32.25 C 24.515157 31.460061 24.09375 31.25 24.09375 31.25 C 24.09375 31.25 26.43521 32.592347 31.09375 33.28125 C 34.088121 33.724056 38.90625 34.09375 38.90625 34.09375 C 38.90625 34.09375 36.873998 33.823458 35.125 33.59375 L 35.53125 27.0625 L 27.40625 26.03125 z "
       id="path3013" />
    <rect
       style="fill:#ff0000;fill-opacity:1;stroke:none"
       id="rect3017"
       width="0.67450351"
       height="0.67450351"
       x="41.670891"
       y="-10.718674"
       transform="matrix(0.49487899,0.8689619,-0.69563731,0.71839316,0,0)" />
    <rect
       transform="matrix(0.49487899,0.8689619,-0.69563731,0.71839316,0,0)"
       y="-12.277079"
       x="42.122318"
       height="1.2472115"
       width="1.2472115"
       id="rect3019"
       style="fill:#ff0000;fill-opacity:1;stroke:none" />
    <rect
       style="fill:#ff0000;fill-opacity:1;stroke:none"
       id="rect3021"
       width="1.3235725"
       height="1.3235725"
       x="45.38155"
       y="-13.2806"
       transform="matrix(0.5391534,0.84220758,-0.65755633,0.75340539,0,0)" />
    <path
       style="fill:#ff0000;stroke:none"
       d="m 28.40625,26.55974 -0.71875,0.84375 -0.03125,0.15625 0.609375,0.05469 -0.05469,0.5625 -0.101562,-0.0078 -0.01597,0.144749 0.367541,0.03103 0.0078,-0.136719 -0.05469,-0.01563 0.04688,-0.542968 0.167969,0 0.0078,-0.1875 -0.167969,-0.01563 0.06641,-0.875 z m -0.07671,0.352273 -0.04829,0.522727 -0.372159,-0.02841 z"
       id="path3023"
       inkscape:connector-curvature="0"
       sodipodi:nodetypes="cccccccccccccccccccc" />
  </g>
</svg>
