<?xml version="1.0" encoding="UTF-8" standalone="no"?>
<!-- Generator: Adobe Illustrator 15.0.0, SVG Export Plug-In . SVG Version: 6.00 Build 0)  -->

<svg
   xmlns:dc="http://purl.org/dc/elements/1.1/"
   xmlns:cc="http://creativecommons.org/ns#"
   xmlns:rdf="http://www.w3.org/1999/02/22-rdf-syntax-ns#"
   xmlns:svg="http://www.w3.org/2000/svg"
   xmlns="http://www.w3.org/2000/svg"
   xmlns:sodipodi="http://sodipodi.sourceforge.net/DTD/sodipodi-0.dtd"
   xmlns:inkscape="http://www.inkscape.org/namespaces/inkscape"
   version="1.1"
   x="0px"
   y="0px"
   width="16"
   height="16"
   viewBox="0 0 16 16"
   enable-background="new 0 0 500 98"
   xml:space="preserve"
   id="svg2"
   inkscape:version="0.48.2 r9819"
   sodipodi:docname="Cracked.com_favicon"><metadata
   id="metadata14"><rdf:RDF><cc:Work
       rdf:about=""><dc:format>image/svg+xml</dc:format><dc:type
         rdf:resource="http://purl.org/dc/dcmitype/StillImage" /><dc:title></dc:title></cc:Work></rdf:RDF></metadata><defs
   id="defs12" /><sodipodi:namedview
   pagecolor="#ffffff"
   bordercolor="#666666"
   borderopacity="1"
   objecttolerance="10"
   gridtolerance="10"
   guidetolerance="10"
   inkscape:pageopacity="0"
   inkscape:pageshadow="2"
   inkscape:window-width="1680"
   inkscape:window-height="987"
   id="namedview10"
   showgrid="false"
   inkscape:object-paths="false"
   fit-margin-top="0"
   fit-margin-left="0"
   fit-margin-right="0"
   fit-margin-bottom="0"
   inkscape:zoom="16"
   inkscape:cx="-1.6465557"
   inkscape:cy="-1.6651299"
   inkscape:window-x="-8"
   inkscape:window-y="-8"
   inkscape:window-maximized="1"
   inkscape:current-layer="svg2"
   inkscape:object-nodes="true"
   inkscape:snap-intersection-paths="false" />
<path
   style="fill:#ffffff"
   d="M 12.53125 0 L 11 1.34375 C 10.065455 0.51029604 9.1023182 0.4375 8.8125 0.4375 C 8.771591 0.4375 8.754 0.4369 8.75 0.4375 C 7.1574545 0.4391 6.0221818 1.193205 5.25 2.34375 C 3.896364 3.758823 3.34375 6.186182 3.34375 8.5 C 3.34375 11.723819 3.7945682 16.000364 7.71875 16 L 7.8125 16 C 8.2257727 16 10.038022 15.889023 11.21875 14.09375 C 11.672931 13.628823 12.086819 13.001546 12.375 12.125 C 12.40809 12.02827 13.187454 9.738364 12 8.25 C 11.593091 7.724546 11.130978 7.4375 10.65625 7.4375 C 10.094068 7.4375 9.7343864 7.827387 9.71875 7.84375 L 9.59375 7.96875 L 9.09375 8.59375 L 9.0625 8.625 L 9.125 8.78125 C 9.13373 8.81125 9.8267952 11.237159 9.15625 12.65625 C 9.120795 12.68207 9.1004995 12.72673 9.0625 12.75 C 8.9177727 12.79927 8.7813409 12.8125 8.65625 12.8125 C 8.4071591 12.8125 8.1905454 12.733247 8 12.53125 C 6.8930881 11.35651 7.0908409 7.492228 7.09375 7.4375 C 7.09375 5.532773 7.37325 4.277795 7.78125 3.53125 C 7.99925 3.360886 8.2403864 3.285977 8.46875 3.28125 C 9.1694773 3.28125 9.5875 3.941182 9.6875 4.125 L 9.6875 6.65625 L 12 6.65625 L 12.53125 5.96875 L 12.53125 5 L 12.53125 2.78125 L 12.53125 0.5625 L 12.53125 0.375 L 12.53125 0 z M 8.96875 2.34375 C 9.9856591 2.32157 10.46875 3.40625 10.46875 3.40625 L 10.46875 5.71875 L 12.21875 5.71875 L 12.21875 5.875 L 11.84375 6.34375 L 10 6.34375 L 10 4.125 C 10.003572 4.0713824 9.9926697 4.0168692 9.96875 3.96875 C 9.9067003 3.8546916 9.7411411 3.6277833 9.5 3.40625 C 9.2588589 3.1847167 8.9149803 2.96875 8.46875 2.96875 C 8.2071605 2.9741648 7.9377945 3.0807166 7.6875 3.25 C 8.075345 2.6351545 8.5243992 2.3533393 8.96875 2.34375 z M 5.1875 2.90625 C 4.334106 4.4773602 4.15625 6.5223298 4.15625 7.8125 C 4.15625 10.967956 4.5763409 15.0625 8.28125 15.0625 C 8.28125 15.0625 9.7327854 15.121473 10.9375 13.96875 C 9.8320711 15.61157 8.1683449 15.6875 7.8125 15.6875 L 7.71875 15.6875 C 5.8675934 15.687672 4.9175371 14.743975 4.34375 13.34375 C 3.7699629 11.943525 3.65625 10.097675 3.65625 8.5 C 3.65625 6.4175383 4.132034 4.2655566 5.1875 2.90625 z M 9.90625 8.09375 C 9.9531098 8.2558473 10.854389 11.454992 9.46875 12.75 C 9.8320378 11.94933 9.7796879 10.958202 9.6875 10.15625 C 9.5939053 9.3420578 9.421868 8.741169 9.40625 8.6875 L 9.8125 8.1875 L 9.84375 8.15625 L 9.90625 8.09375 z "
   id="path4" />


</svg>