<?xml version="1.0" encoding="UTF-8" standalone="no"?>
<!-- Generator: Adobe Illustrator 13.0.0, SVG Export Plug-In . SVG Version: 6.00 Build 14948)  -->

<svg
   xmlns:dc="http://purl.org/dc/elements/1.1/"
   xmlns:cc="http://creativecommons.org/ns#"
   xmlns:rdf="http://www.w3.org/1999/02/22-rdf-syntax-ns#"
   xmlns:svg="http://www.w3.org/2000/svg"
   xmlns="http://www.w3.org/2000/svg"
   xmlns:sodipodi="http://sodipodi.sourceforge.net/DTD/sodipodi-0.dtd"
   xmlns:inkscape="http://www.inkscape.org/namespaces/inkscape"
   version="1.1"
   x="0px"
   y="0px"
   width="128px"
   height="128px"
   viewBox="0 0 128 128"
   enable-background="new 0 0 128 128"
   xml:space="preserve"
   id="svg2"
   inkscape:version="0.48.2 r9819"
   sodipodi:docname="F_icon.svg"><metadata
   id="metadata19"><rdf:RDF><cc:Work
       rdf:about=""><dc:format>image/svg+xml</dc:format><dc:type
         rdf:resource="http://purl.org/dc/dcmitype/StillImage" /><dc:title></dc:title></cc:Work></rdf:RDF></metadata><defs
   id="defs17">
	

	
</defs><sodipodi:namedview
   pagecolor="#ffffff"
   bordercolor="#666666"
   borderopacity="1"
   objecttolerance="10"
   gridtolerance="10"
   guidetolerance="10"
   inkscape:pageopacity="0"
   inkscape:pageshadow="2"
   inkscape:window-width="1680"
   inkscape:window-height="987"
   id="namedview15"
   showgrid="false"
   inkscape:zoom="1.84375"
   inkscape:cx="64"
   inkscape:cy="64"
   inkscape:window-x="-8"
   inkscape:window-y="-8"
   inkscape:window-maximized="1"
   inkscape:current-layer="svg2" />
<path
   style="fill:#ffffff"
   d="M 10 2 C 5.582 2 2 5.582 2 10 L 2 118 C 2 122.418 5.582 126 10 126 L 118 126 C 122.418 126 126 122.418 126 118 L 126 10 C 126 5.582 122.418 2 118 2 L 10 2 z M 95.15625 14.53125 L 109.28125 14.53125 L 109.28125 32.1875 L 100.4375 32.1875 C 93.8315 32.1875 93.40625 34.67525 93.40625 39.28125 L 93.375 48.09375 L 109.375 48.09375 L 107.5 65.75 L 93.375 65.75 L 93.375 117 L 72.1875 117 L 72.1875 65.78125 L 61.625 65.78125 L 61.625 48.09375 L 72.1875 48.09375 L 72.1875 37.5 C 72.1875 23.093 78.18625 14.53125 95.15625 14.53125 z "
   id="path5" />


</svg>