<?xml version="1.0" encoding="UTF-8" standalone="no"?>
<!-- Created with Inkscape (http://www.inkscape.org/) -->

<svg
   xmlns:dc="http://purl.org/dc/elements/1.1/"
   xmlns:cc="http://creativecommons.org/ns#"
   xmlns:rdf="http://www.w3.org/1999/02/22-rdf-syntax-ns#"
   xmlns:svg="http://www.w3.org/2000/svg"
   xmlns="http://www.w3.org/2000/svg"
   xmlns:sodipodi="http://sodipodi.sourceforge.net/DTD/sodipodi-0.dtd"
   xmlns:inkscape="http://www.inkscape.org/namespaces/inkscape"
   id="svg2"
   version="1.1"
   inkscape:version="0.48.2 r9819"
   width="32"
   height="32"
   xml:space="preserve"
   sodipodi:docname="blacktocat-32px.svg"><metadata
     id="metadata8"><rdf:RDF><cc:Work
         rdf:about=""><dc:format>image/svg+xml</dc:format><dc:type
           rdf:resource="http://purl.org/dc/dcmitype/StillImage" /><dc:title></dc:title></cc:Work></rdf:RDF></metadata><defs
     id="defs6"><clipPath
       clipPathUnits="userSpaceOnUse"
       id="clipPath16"><path
         d="M 0,64 64,64 64,0 0,0 0,64 z"
         id="path18"
         inkscape:connector-curvature="0" /></clipPath></defs><sodipodi:namedview
     pagecolor="#ffffff"
     bordercolor="#666666"
     borderopacity="1"
     objecttolerance="10"
     gridtolerance="10"
     guidetolerance="10"
     inkscape:pageopacity="0"
     inkscape:pageshadow="2"
     inkscape:window-width="1680"
     inkscape:window-height="987"
     id="namedview4"
     showgrid="false"
     fit-margin-top="0"
     fit-margin-left="0"
     fit-margin-right="0"
     fit-margin-bottom="0"
     inkscape:zoom="11.313709"
     inkscape:cx="28.029053"
     inkscape:cy="19.533079"
     inkscape:window-x="-8"
     inkscape:window-y="-8"
     inkscape:window-maximized="1"
     inkscape:current-layer="g10" /><g
     id="g10"
     inkscape:groupmode="layer"
     inkscape:label="blacktocats"><path
       inkscape:connector-curvature="0"
       id="path26"
       style="fill:#ffffff;fill-opacity:1;fill-rule:nonzero;stroke:none"
       d="m 20.008,29 c 5.5,-1.812 9.484,-6.937 9.484,-13 0,-7.453 -6.046,-13.5 -13.5,-13.5 C 8.555,2.5 2.508,8.547 2.508,16 c 0,6.063 4,11.203 9.516,13 l 0,-2.547 C 8.086,27.344 7.258,24.609 7.258,24.609 6.633,23 5.727,22.578 5.727,22.578 4.461,21.719 5.82,21.734 5.82,21.734 c 1.391,0.094 2.125,1.422 2.125,1.422 1.313,2.25 3.485,1.438 4.157,1.11 0.203,-0.985 0.969,-1.188 1.219,-1.266 -3.547,-0.375 -7.344,-1.656 -7.344,-7.797 0,-1.719 0.609,-3.125 1.609,-4.219 -0.156,-0.406 -0.703,-2 0.156,-4.171 0,0 1.328,-0.422 4.329,1.609 1.25,-0.344 2.593,-0.516 3.937,-0.531 1.328,0.015 2.672,0.187 3.938,0.531 3,-2.031 4.312,-1.609 4.312,-1.609 0.859,2.171 0.328,3.765 0.156,4.171 1.016,1.094 1.625,2.5 1.625,4.219 0,6.141 -3.797,7.406 -7.343,7.781 0.64,0.438 1.312,1.266 1.312,2.844 l 0,3.172 z M 31.992,16 c 0,8.844 -7.156,16 -16,16 C 7.164,32 0.008,24.844 0.008,16 0.008,7.172 7.164,0 15.992,0 c 8.844,0 16,7.172 16,16" /></g></svg>