<?xml version="1.0" encoding="UTF-8" standalone="no"?>
<!-- Generator: Adobe Illustrator 16.0.0, SVG Export Plug-In . SVG Version: 6.00 Build 0)  -->

<svg
   xmlns:dc="http://purl.org/dc/elements/1.1/"
   xmlns:cc="http://creativecommons.org/ns#"
   xmlns:rdf="http://www.w3.org/1999/02/22-rdf-syntax-ns#"
   xmlns:svg="http://www.w3.org/2000/svg"
   xmlns="http://www.w3.org/2000/svg"
   xmlns:sodipodi="http://sodipodi.sourceforge.net/DTD/sodipodi-0.dtd"
   xmlns:inkscape="http://www.inkscape.org/namespaces/inkscape"
   version="1.1"
   id="Layer_1"
   x="0px"
   y="0px"
   width="144.004"
   height="144"
   viewBox="0 0 144.00399 144"
   enable-background="new 0 0 568.291 144"
   xml:space="preserve"
   inkscape:version="0.91 r13725"
   sodipodi:docname="linkedin_white.svg"><metadata
     id="metadata37"><rdf:RDF><cc:Work
         rdf:about=""><dc:format>image/svg+xml</dc:format><dc:type
           rdf:resource="http://purl.org/dc/dcmitype/StillImage" /><dc:title></dc:title></cc:Work></rdf:RDF></metadata><defs
     id="defs35" /><sodipodi:namedview
     pagecolor="#ffffff"
     bordercolor="#666666"
     borderopacity="1"
     objecttolerance="10"
     gridtolerance="10"
     guidetolerance="10"
     inkscape:pageopacity="0"
     inkscape:pageshadow="2"
     inkscape:window-width="1680"
     inkscape:window-height="987"
     id="namedview33"
     showgrid="false"
     fit-margin-top="0"
     fit-margin-left="0"
     fit-margin-right="0"
     fit-margin-bottom="0"
     inkscape:zoom="3.1654198"
     inkscape:cx="10.44993"
     inkscape:cy="85.15873"
     inkscape:window-x="-8"
     inkscape:window-y="-8"
     inkscape:window-maximized="1"
     inkscape:current-layer="Layer_1" /><path
     style="fill:#ffffff"
     d="M 10.628906 0 C 4.7649065 0 1.1842379e-015 4.6489532 0 10.376953 L 0 133.60938 C 0 139.34337 4.7649064 144 10.628906 144 L 133.3457 144 C 139.2197 144 144.00391 139.34437 144.00391 133.60938 L 144.00391 10.376953 C 144.00391 4.6489532 139.2197 0 133.3457 0 L 10.628906 0 z M 32.035156 19.824219 C 38.863156 19.824219 44.412109 25.374078 44.412109 32.205078 C 44.412109 39.042078 38.863156 44.591797 32.035156 44.591797 C 25.189156 44.591797 19.648437 39.042078 19.648438 32.205078 C 19.649438 25.375078 25.190156 19.824219 32.035156 19.824219 z M 97.087891 52.275391 C 118.71589 52.275391 122.70703 66.509719 122.70703 85.011719 L 122.70703 122.70508 L 101.36328 122.70508 L 101.36328 89.285156 C 101.36328 81.316156 101.21862 71.066406 90.265625 71.066406 C 79.152625 71.066406 77.445313 79.747938 77.445312 88.710938 L 77.445312 122.70508 L 56.105469 122.70508 L 56.105469 53.984375 L 56.107422 53.984375 L 76.591797 53.984375 L 76.591797 63.375 L 76.878906 63.375 C 79.730906 57.972 86.696891 52.275391 97.087891 52.275391 z M 21.351562 53.984375 L 42.710938 53.984375 L 42.710938 122.70703 L 21.351562 122.70703 L 21.351562 53.984375 z "
     transform="translate(-7.6293945e-6,0)"
     id="path27" /></svg>