<?xml version="1.0" encoding="UTF-8" standalone="no"?>
<!-- Generator: Adobe Illustrator 14.0.0, SVG Export Plug-In . SVG Version: 6.00 Build 43363)  -->

<svg
   xmlns:dc="http://purl.org/dc/elements/1.1/"
   xmlns:cc="http://creativecommons.org/ns#"
   xmlns:rdf="http://www.w3.org/1999/02/22-rdf-syntax-ns#"
   xmlns:svg="http://www.w3.org/2000/svg"
   xmlns="http://www.w3.org/2000/svg"
   xmlns:sodipodi="http://sodipodi.sourceforge.net/DTD/sodipodi-0.dtd"
   xmlns:inkscape="http://www.inkscape.org/namespaces/inkscape"
   version="1.0"
   id="Layer_1"
   x="0px"
   y="0px"
   width="74.089px"
   height="99.818px"
   viewBox="0 0 74.089 99.818"
   enable-background="new 0 0 74.089 99.818"
   xml:space="preserve"
   inkscape:version="0.48.2 r9819"
   sodipodi:docname="noun_project_127.svg"><metadata
   id="metadata10"><rdf:RDF><cc:Work
       rdf:about=""><dc:format>image/svg+xml</dc:format><dc:type
         rdf:resource="http://purl.org/dc/dcmitype/StillImage" /><dc:title></dc:title></cc:Work></rdf:RDF></metadata><defs
   id="defs8" /><sodipodi:namedview
   pagecolor="#ffffff"
   bordercolor="#666666"
   borderopacity="1"
   objecttolerance="10"
   gridtolerance="10"
   guidetolerance="10"
   inkscape:pageopacity="0"
   inkscape:pageshadow="2"
   inkscape:window-width="1680"
   inkscape:window-height="987"
   id="namedview6"
   showgrid="false"
   inkscape:zoom="2.364303"
   inkscape:cx="37.044498"
   inkscape:cy="49.909"
   inkscape:window-x="-8"
   inkscape:window-y="-8"
   inkscape:window-maximized="1"
   inkscape:current-layer="Layer_1" />
<path
   id="path3480_1_"
   d="M21.547,0.091c0,0-21.827,0.287-21.544,20.059c0.284,19.773,4.253,37.255,10.773,46.998  c6.519,9.744,23.242,35.248,42.236,32.67c0,0,9.355-2.007,16.44-6.593L46.492,75.171c0,0-6.803,4.299-11.055-1.433  c-4.253-5.73-17.575-32.381-17.575-32.381s-3.685-8.598,4.536-12.323L21.547,0.091z"
   style="fill:#ffffff" />
<path
   id="path3482_1_"
   d="M24.099,0.091c0,0,1.701-0.571,4.818,1.147c3.118,1.719,3.118,3.15,3.118,3.15l0.284,19.775  c0,0-0.851,1.147-1.984,2.291c-1.134,1.146-4.819,2.867-5.387,1.72C24.383,27.029,24.099,0.091,24.099,0.091z"
   style="fill:#ffffff" />
<path
   id="path3484_1_"
   d="M48.401,73.058l6.312-3.332c0,0,1.417-0.285,3.684,1.146  c2.268,1.436,14.174,10.893,14.174,10.893s1.984,1.719,1.417,3.725c-0.566,2.006-1.984,6.305-1.984,6.305L48.401,73.058z"
   style="fill:#ffffff" />
</svg>