<?xml version="1.0" encoding="UTF-8" standalone="no"?>
<!-- Generator: Adobe Illustrator 13.0.1, SVG Export Plug-In . SVG Version: 6.00 Build 14948)  -->

<svg
   xmlns:dc="http://purl.org/dc/elements/1.1/"
   xmlns:cc="http://creativecommons.org/ns#"
   xmlns:rdf="http://www.w3.org/1999/02/22-rdf-syntax-ns#"
   xmlns:svg="http://www.w3.org/2000/svg"
   xmlns="http://www.w3.org/2000/svg"
   xmlns:sodipodi="http://sodipodi.sourceforge.net/DTD/sodipodi-0.dtd"
   xmlns:inkscape="http://www.inkscape.org/namespaces/inkscape"
   version="1.1"
   x="0px"
   y="0px"
   width="64"
   height="64"
   viewBox="0 0 64 64.000001"
   enable-background="new 0 0 120 40"
   xml:space="preserve"
   id="svg21775"
   inkscape:version="0.48.2 r9819"
   sodipodi:docname="reddit-alien.svg.2013_12_09_04_09_21.0.svg"
   inkscape:export-filename="/home/chromakode/Documents/code/reddit/reddit-about/reddit_about/public/static/about/assets/reddit-alien.png"
   inkscape:export-xdpi="184.19029"
   inkscape:export-ydpi="184.19029"><metadata
   id="metadata21839"><rdf:RDF><cc:Work
       rdf:about=""><dc:format>image/svg+xml</dc:format><dc:type
         rdf:resource="http://purl.org/dc/dcmitype/StillImage" /><dc:title></dc:title></cc:Work></rdf:RDF></metadata><defs
   id="defs21837">
	
	
	
	
	
	
	
	
	
	
	
		
	

		
		
		
		
	
		
		
	
		
		
	
		
		
	
			
		
			
		
			
		
			
		
			
		
			
		</defs><sodipodi:namedview
   pagecolor="#ffffff"
   bordercolor="#666666"
   borderopacity="1"
   objecttolerance="10"
   gridtolerance="10"
   guidetolerance="10"
   inkscape:pageopacity="0"
   inkscape:pageshadow="2"
   inkscape:window-width="1261"
   inkscape:window-height="900"
   id="namedview21835"
   showgrid="false"
   inkscape:zoom="4"
   inkscape:cx="44.392792"
   inkscape:cy="26.045091"
   inkscape:window-x="103"
   inkscape:window-y="35"
   inkscape:window-maximized="0"
   inkscape:current-layer="svg21775"
   fit-margin-top="0"
   fit-margin-left="0"
   fit-margin-right="0"
   fit-margin-bottom="0" />
<path
   style="fill:#ffffff;stroke:none"
   d="M 23.017439,38.2056 C 22.718679,40.15951 22.562626,42.24925 22.562626,44.41055 22.562626,49.26707 23.375715,53.70101 24.706745,57.1778 25.518263,59.29756 26.53135,61.02577 27.630544,62.27821 27.726974,62.38641 27.825142,62.50189 27.922924,62.60307 28.490458,63.19689 29.085569,63.66933 29.677204,64 L 34.095389,64 C 35.023939,63.48085 35.943633,62.61785 36.791781,61.46604 37.003818,61.17809 37.206642,60.88044 37.409028,60.55641 38.016185,59.58433 38.578859,58.44968 39.065847,57.1778 40.397091,53.70098 41.209966,49.26702 41.209966,44.41055 41.209966,42.24888 41.048154,40.15957 40.755153,38.2056 38.058271,39.02615 35.076127,39.47258 31.918783,39.47258 28.753756,39.47258 25.733564,39.02994 23.017439,38.2056 z M 42.834299,39.8949 C 42.983378,41.35768 43.061706,42.85839 43.061706,44.41055 43.061706,47.908 42.645735,51.19392 41.924673,54.12406 44.270845,52.96406 45.985505,50.14395 45.985505,46.7171 45.985505,43.75086 44.697964,41.26234 42.834299,39.8949 z M 20.938293,39.99236 C 19.117418,41.37205 17.852061,43.80478 17.852061,46.7171 17.852061,50.10479 19.533575,52.90837 21.84792,54.09157 21.131579,51.16913 20.710887,47.89579 20.710887,44.41055 20.710887,42.89451 20.792746,41.42361 20.938293,39.99236 z M 23.017439,60.68636 C 20.609763,60.68636 18.826661,62.24425 18.826661,63.90254 18.826661,63.93189 18.857183,63.97052 18.859148,64 L 26.298592,64 26.688431,64 C 25.862578,63.15429 25.114963,62.1315 24.446852,60.94625 23.991617,60.80569 23.514787,60.68636 23.017439,60.68636 z M 40.820127,60.68636 C 40.278214,60.68636 39.790554,60.79935 39.32574,60.94625 38.657518,62.1315 37.909981,63.15429 37.084161,64 L 37.538974,64 37.668921,64 44.978419,64 C 44.979896,63.96536 45.010905,63.93896 45.010905,63.90254 45.010905,62.2438 43.229719,60.68636 40.820127,60.68636 z"
   id="ellipse21778"
   inkscape:connector-curvature="0"
   sodipodi:nodetypes="cssccccsssscsccscsccscscssccccsscccccss" /><path
   style="fill:#ffffff;stroke:none"
   d="M 13.498849,15.36748 C 11.497626,15.36748 9.8928308,16.97228 9.8928308,18.9735 9.8928308,20.05823 10.376784,21.01053 11.127324,21.66989 11.940139,19.52711 13.469243,17.58882 15.480535,15.98472 14.909972,15.60682 14.238998,15.36748 13.498849,15.36748 z"
   id="circle7"
   inkscape:connector-curvature="0"
   sodipodi:nodetypes="ssccs" /><path
   style="fill:#ffffff;stroke:none"
   d="M 50.50115,15.36748 C 49.708636,15.36748 48.982643,15.62139 48.389517,16.0497 50.398322,17.67377 51.923021,19.63507 52.710243,21.79983 53.552733,21.14154 54.107169,20.13306 54.107169,18.9735 54.107169,16.97228 52.502374,15.36748 50.50115,15.36748 z"
   id="circle21802"
   inkscape:connector-curvature="0"
   sodipodi:nodetypes="sccss" /><path
   style="font-size:medium;font-style:normal;font-variant:normal;font-weight:normal;font-stretch:normal;text-indent:0;text-align:start;text-decoration:none;line-height:normal;letter-spacing:normal;word-spacing:normal;text-transform:none;direction:ltr;block-progression:tb;writing-mode:lr-tb;text-anchor:start;baseline-shift:baseline;color:#000000;fill:#ffffff;fill-opacity:1;stroke:none;stroke-width:1.77196074;marker:none;visibility:visible;display:inline;overflow:visible;enable-background:accumulate;font-family:Sans;-inkscape-font-specification:Sans"
   d="M 35.394855,0.00129053 A 0.92113329,0.92113329 0 0 0 35.329882,0.03378053 0.92113329,0.92113329 0 0 0 34.615175,0.68351053 L 31.36651,10.884321 C 31.550251,10.881221 31.73398,10.851831 31.918783,10.851831 32.392797,10.851831 32.849617,10.864141 33.315709,10.884321 L 36.109562,2.0479505 43.743926,3.8347105 C 43.743847,3.8238405 43.743926,3.8131205 43.743926,3.8022305 43.743926,3.1751305 43.864957,2.5601705 44.101279,2.0154605 L 35.687235,0.03378053 A 0.92113329,0.92113329 0 0 0 35.492315,0.00129053 0.92113329,0.92113329 0 0 0 35.394855,0.00129053 z M 48.227084,1.1708105 C 46.754883,1.1708105 45.563178,2.3300305 45.563178,3.8022305 45.563178,5.2744305 46.754883,6.4661305 48.227084,6.4661305 49.699285,6.4661305 50.858503,5.2744305 50.858503,3.8022305 50.858503,2.3300305 49.699285,1.1708105 48.227084,1.1708105 z"
   id="path21804"
   inkscape:connector-curvature="0" /><path
   style="fill:#ffffff;stroke:none"
   d="M 31.918783,12.73606 C 26.421953,12.73606 21.413669,14.20126 17.884548,16.50451 14.355427,18.80776 12.32933,21.89882 12.32933,25.21093 12.32933,28.52303 14.355427,31.58163 17.884548,33.88487 21.413669,36.18812 26.421953,37.65332 31.918783,37.65332 37.415615,37.65332 42.358923,36.18812 45.888045,33.88487 49.417167,31.58163 51.47575,28.52303 51.47575,25.21093 51.47575,21.89882 49.417167,18.80776 45.888045,16.50451 42.358923,14.20126 37.415615,12.73606 31.918783,12.73606 z M 24.804205,19.23339 C 26.624533,19.23339 28.085358,20.75919 28.085358,22.57951 28.085358,24.39984 26.624533,25.89315 24.804205,25.89315 22.983879,25.89315 21.45808,24.39984 21.45808,22.57951 21.45808,20.75919 22.983879,19.23339 24.804205,19.23339 z M 39.228281,19.23339 C 41.049534,19.23339 42.541919,20.75827 42.541919,22.57951 42.541919,24.40076 41.049534,25.89315 39.228281,25.89315 37.407027,25.89315 35.882155,24.40076 35.882155,22.57951 35.882155,20.75827 37.407027,19.23339 39.228281,19.23339 z M 24.706745,30.4088 A 0.92113331,0.92113331 0 0 1 24.804205,30.4088 0.92113331,0.92113331 0 0 1 25.551399,30.70118 C 26.966676,32.11646 29.431329,32.52184 31.65889,32.55292 31.75543,32.55427 31.855742,32.55292 31.95127,32.55292 A 0.92113331,0.92113331 0 0 1 32.016243,32.55292 C 32.101221,32.55292 32.190364,32.55398 32.276136,32.55292 34.513351,32.52533 36.992035,32.12393 38.416114,30.70118 A 0.92113331,0.92113331 0 0 1 38.968387,30.4088 0.92113331,0.92113331 0 0 1 39.71558,32.00064 C 37.707809,34.00654 34.764822,34.3474 32.34111,34.37217 A 0.92113331,0.92113331 0 0 1 32.308623,34.37217 C 32.214074,34.37303 32.109061,34.37217 32.016243,34.37217 A 0.92113331,0.92113331 0 0 1 31.95127,34.37217 C 31.868819,34.37217 31.775213,34.37285 31.691376,34.37217 A 0.92113331,0.92113331 0 0 1 31.65889,34.37217 C 29.230554,34.35006 26.267184,34.01591 24.251932,32.00064 A 0.92113331,0.92113331 0 0 1 24.706745,30.4088 z"
   id="ellipse21820"
   inkscape:connector-curvature="0" />
<g
   id="Layer_3"
   transform="matrix(0.128,0,0,0.128,-7.2318366,60.160091)">
</g>
</svg>