<?xml version="1.0" encoding="UTF-8" standalone="no"?>
<svg
   xmlns:dc="http://purl.org/dc/elements/1.1/"
   xmlns:cc="http://creativecommons.org/ns#"
   xmlns:rdf="http://www.w3.org/1999/02/22-rdf-syntax-ns#"
   xmlns:svg="http://www.w3.org/2000/svg"
   xmlns="http://www.w3.org/2000/svg"
   xmlns:sodipodi="http://sodipodi.sourceforge.net/DTD/sodipodi-0.dtd"
   xmlns:inkscape="http://www.inkscape.org/namespaces/inkscape"
   viewBox="0 0 160 160"
   height="160"
   width="160"
   xml:space="preserve"
   id="svg2"
   version="1.1"
   inkscape:version="0.91 r13725"
   sodipodi:docname="Stack_Overflow_whiteicon.svg"><sodipodi:namedview
     pagecolor="#ffffff"
     bordercolor="#666666"
     borderopacity="1"
     objecttolerance="10"
     gridtolerance="10"
     guidetolerance="10"
     inkscape:pageopacity="0"
     inkscape:pageshadow="2"
     inkscape:window-width="1680"
     inkscape:window-height="987"
     id="namedview14"
     showgrid="false"
     units="px"
     inkscape:object-nodes="true"
     inkscape:snap-grids="true"
     inkscape:zoom="4.925"
     inkscape:cx="80"
     inkscape:cy="80"
     inkscape:window-x="-8"
     inkscape:window-y="-8"
     inkscape:window-maximized="1"
     inkscape:current-layer="svg2"><inkscape:grid
       type="xygrid"
       id="grid4160"
       spacingx="1"
       spacingy="1"
       empspacing="4" /></sodipodi:namedview><metadata
     id="metadata8"><rdf:RDF><cc:Work
         rdf:about=""><dc:format>image/svg+xml</dc:format><dc:type
           rdf:resource="http://purl.org/dc/dcmitype/StillImage" /><dc:title></dc:title></cc:Work></rdf:RDF></metadata><defs
     id="defs6"><clipPath
       id="clipPath20"
       clipPathUnits="userSpaceOnUse"><path
         id="path18"
         d="M 0,1178.69 0,0 l 6000.85,0 0,1178.69 z"
         inkscape:connector-curvature="0" /></clipPath></defs><path
     id="path24"
     style="fill:#ffffff;fill-opacity:1;fill-rule:nonzero;stroke:none"
     d="m 129.92356,145.72245 0,-42.82869 14.27538,0 0,57.10624 -128.397873,0 0,-57.10624 14.275373,0 0,42.82869 99.84712,0"
     inkscape:connector-curvature="0" /><path
     id="path26"
     style="fill:#ffffff;fill-opacity:1;fill-rule:nonzero;stroke:none"
     d="m 44.367696,131.44504 71.377004,0 0,-14.27537 -71.377004,0 z M 108.33919,-3.66e-6 96.88471,8.5192847 139.48347,65.791545 150.93781,57.272121 Z M 72.932832,33.765074 127.77976,79.443446 136.91546,68.473573 82.068533,22.795472 Z m -17.905438,31.743308 64.704246,30.1342 6.02675,-12.940739 -64.704236,-30.1342 z M 45.785134,98.954463 115.63651,113.63503 118.57252,99.664538 48.721139,84.98397 45.785134,98.954463"
     inkscape:connector-curvature="0" /></svg>