<?xml version="1.0" encoding="UTF-8" standalone="no"?>
<!-- Created with Inkscape (http://www.inkscape.org/) -->

<svg
   xmlns:svg="http://www.w3.org/2000/svg"
   xmlns="http://www.w3.org/2000/svg"
   xmlns:sodipodi="http://sodipodi.sourceforge.net/DTD/sodipodi-0.dtd"
   xmlns:inkscape="http://www.inkscape.org/namespaces/inkscape"
   width="1200"
   height="1000"
   id="infographic-base"
   version="1.1">
  <style>
    text {
      font-size:20px;
      font-style:normal;
      font-variant:normal;
      font-weight:normal;
      font-stretch:normal;
      line-height:125%;
      letter-spacing:0px;
      word-spacing:0px;
      fill:#000000;
      fill-opacity:1;
      stroke:none;
    }

    .start-align {
      text-align: start;
      text-anchor: start;
    }

    .end-align {
      text-align: end;
      text-anchor: end;
    }
  </style>
  <g
     id="layer1"
     inkscape:groupmode="layer"
     inkscape:label="figure"
     style="display:inline"
     transform="translate(0,-52.36217)">
    <ellipse
       style="fill:#241c1c;fill-opacity:1;stroke:none"
       id="hairellipse"
       cx="599.167"
       cy="173.313"
       rx="53.2"
       ry="45" />
    <path
       inkscape:connector-curvature="0"
       sodipodi:nodetypes="ccccccssz"
       id="rect2399"
       d="m 459.70888,998.64883 c 8.32874,-12.53271 33.72667,-9.65062 50.80601,-22.79546 16.26578,3.63801 31.99375,3.57074 47.21318,0 l 3.13911,37.99903 -28.37853,0 -0.78476,-4.5056 c 0,0 -19.71495,4.3424 -28.2793,5.0156 -8.02962,0.6311 -18.91125,1.1774 -26.82435,-0.51 -10.75483,-2.2935 -24.91907,-3.1239 -16.89136,-15.20357 z"
       style="fill:#1a1a1a;fill-opacity:1;stroke:#000000;stroke-width:2.3747828;stroke-linecap:round;stroke-linejoin:round;stroke-miterlimit:4;stroke-opacity:1" />
    <path
       inkscape:connector-curvature="0"
       sodipodi:nodetypes="ccccccssz"
       id="path3316"
       d="m 743.67634,998.64883 c -8.32874,-12.53271 -33.72667,-9.65062 -50.80601,-22.79546 -16.26578,3.63801 -31.99375,3.57074 -47.21318,0 l -3.13911,37.99903 28.37853,0 0.78476,-4.5056 c 0,0 19.71495,4.3424 28.2793,5.0156 8.02962,0.6311 18.91125,1.1774 26.82435,-0.51 10.75483,-2.2935 24.91907,-3.1239 16.89136,-15.20357 z"
       style="fill:#1a1a1a;fill-opacity:1;stroke:#000000;stroke-width:2.3747828;stroke-linecap:round;stroke-linejoin:round;stroke-miterlimit:4;stroke-opacity:1" />
    <path
       style="display:inline;fill:#ffffff;fill-opacity:1;stroke:#000000;stroke-width:2.5;stroke-miterlimit:4;stroke-dasharray:none;stroke-opacity:1"
       d="m 599.29688,166.375 c -14.5186,0.0168 -34.51398,4.0545 -44.45508,11.8125 l -2.67383,17.96875 34.02148,14.40625 c -10.31553,-0.8371 -20.16718,-4.48709 -30.41015,-10.48242 l 0.0644,-2.17383 -2.22852,0.87695 c -0.47222,-0.28985 -0.94375,-0.57739 -1.41796,-0.87695 l -0.41407,1.5957 -61.1643,18.49207 -173.17163,178.55286 c -3.4381,7.54311 -4.2312,15.81699 -0.5,23.65624 5.93076,12.46058 20.85192,17.74327 33.3125,11.8125 5.59599,-2.66349 9.7549,-7.15232 12.09375,-12.40624 l 119.4375,-99.6875 -0.10352,149.23437 0,104 c 0,23.81173 18.2439,43 40.88477,43 l 146.45898,0 c 22.64087,0 40.85547,-19.18827 40.85547,-43 l 0,-103.25 -0.53125,-2.16602 0.34375,-0.0215 -0.10352,-149.23437 119.4375,99.6875 c 2.33885,5.25392 6.49776,9.74275 12.09375,12.40624 12.46058,5.93077 27.38174,0.64808 33.3125,-11.8125 3.7312,-7.83925 2.9381,-16.11313 -0.5,-23.65624 l -171.92744,-177.93174 -58.38115,-17.53116 -0.73633,-3 0.47656,-0.1875 -2.73437,-18.1875 c -11.6786,-8.26015 -29.33518,-11.81144 -41.33984,-11.89648 z m 41.33984,31.17773 c -0.31804,0.18048 -0.65946,0.35275 -0.98828,0.5293 l -0.30664,-0.12109 z m -5.01367,1.58399 0.0254,0.89844 c -10.7975,4.79939 -24.93522,7.89804 -32.82032,9.46484 z"
       transform="translate(0,52.36217)"
       id="rect2385"
       inkscape:connector-curvature="0"
       sodipodi:nodetypes="cccccccccccsscccsssscccccssccccccccccccccc" />
    <path
       style="fill:#1a1a1a;fill-opacity:1;stroke:#000000;stroke-width:2.5;stroke-miterlimit:4;stroke-dasharray:none;stroke-opacity:1"
       d="m 481.69703,539.6287 0.0594,88.09375 c -7.9e-4,0.0208 7.7e-4,0.0417 0,0.0625 l 0,0.0937 c -0.16788,4.62285 0.0359,9.3454 0.56455,14.09375 l 10.25112,163.09375 -0.26742,173.4375 78.82966,0 0,-168.15625 13.63845,-141.8437 22.01763,0 13.69788,142.15625 0,167.84375 78.82966,0 0,-173.4375 c 2.76865,-53.64207 6.54763,-108.89917 9.95399,-163.09375 0.52024,-4.67341 0.69212,-9.32198 0.53484,-13.875 l 0,-0.34375 c -4e-4,-0.0104 4e-4,-0.0209 0,-0.0312 l -0.32685,-87.46875 c -33.49174,8.18916 -72.03958,12.875 -113.02978,12.875 -40.98613,0 -81.26376,-5.31237 -114.75316,-13.5 z"
       id="path3262"
       inkscape:connector-curvature="0"
       sodipodi:nodetypes="ccccccccccccccccccccscc" />
    <path
       inkscape:connector-curvature="0"
       style="display:inline;fill:none;stroke:#000000;stroke-width:2.4859314;stroke-linecap:round;stroke-linejoin:round;stroke-miterlimit:4;stroke-dasharray:none;stroke-opacity:1"
       d="m 483.49662,546.64689 c 33.4894,8.18763 72.00282,12.85781 112.98895,12.85781 40.9902,0 79.52655,-4.66865 113.01829,-12.85781"
       id="path3338"
       sodipodi:nodetypes="csc" />
    <path
       inkscape:connector-curvature="0"
       style="fill:#e9c6af;fill-opacity:1;stroke:#000000;stroke-width:2.29278278;stroke-linecap:round;stroke-linejoin:round;stroke-miterlimit:4;stroke-opacity:1;display:inline"
       d="m 571.52046,230.32691 54.84003,0 0.66526,20.82203 c -20.98449,28.86629 -39.67451,25.52905 -56.6695,-1.59848 l 1.16421,-19.22355 z"
       id="rect2433"
       sodipodi:nodetypes="ccccc" />
    <ellipse
       style="display:inline;fill:#e9c6af;fill-opacity:1;stroke:#000000;stroke-width:2.5;stroke-linecap:round;stroke-linejoin:round;stroke-miterlimit:4;stroke-dasharray:none;stroke-opacity:1"
       id="path3227"
       transform="translate(142.4537,68.165915)"
       cx="409.46973"
       cy="117.00158"
       rx="8.3157949"
       ry="16.63159" />
    <ellipse
       style="display:inline;fill:#e9c6af;fill-opacity:1;stroke:#000000;stroke-width:2.5;stroke-linecap:round;stroke-linejoin:round;stroke-miterlimit:4;stroke-dasharray:none;stroke-opacity:1"
       id="path3225"
       transform="translate(236.81906,68.167659)"
       cx="409.46973"
       cy="117.00158"
       rx="8.3157949"
       ry="16.63159" />
    <path
       sodipodi:nodetypes="szszs"
       inkscape:connector-curvature="0"
       id="path2404"
       d="m 647.91701,185.55754 c 0,33.82746 -25.81851,61.25002 -48.75001,61.25002 -22.93148,0 -48.75,-27.42256 -48.75,-61.25002 0,-33.82743 11.09408,-61.24998 48.75,-61.24998 37.65593,0 48.75001,27.42255 48.75001,61.24998 z"
       style="fill:#e9c6af;fill-opacity:1;stroke:#000000;stroke-width:2.49999976;stroke-linecap:round;stroke-linejoin:round;stroke-miterlimit:4;stroke-opacity:1;display:inline" />
    <ellipse
       style="display:inline;fill:#000000;fill-opacity:1;stroke:#000000;stroke-width:2.5;stroke-linecap:round;stroke-linejoin:round;stroke-miterlimit:4;stroke-dasharray:none;stroke-opacity:1"
       id="path3217"
       transform="translate(355.01732,58.845405)"
       cx="223.52856"
       cy="127.97843"
       rx="3.9915814"
       ry="3.6589496" />
    <ellipse
       style="display:inline;fill:#000000;fill-opacity:1;stroke:#000000;stroke-width:2.5;stroke-linecap:round;stroke-linejoin:round;stroke-miterlimit:4;stroke-dasharray:none;stroke-opacity:1"
       id="path3221"
       transform="translate(396.26365,59.178045)"
       cx="223.52856"
       cy="127.97843"
       rx="3.9915814"
       ry="3.6589496" />
    <path
       inkscape:connector-curvature="0"
       style="fill:none;stroke:#000000;stroke-width:5;stroke-linecap:butt;stroke-linejoin:miter;stroke-miterlimit:4;stroke-opacity:1;stroke-dasharray:none;display:inline"
       d="m 584.53326,221.08491 27.94107,0"
       id="path3229"
       sodipodi:nodetypes="cc" />
    <path
       sodipodi:nodetypes="csc"
       id="path4013"
       d="m 483.56517,564.98924 c 33.4894,8.18763 72.00282,12.85781 112.98894,12.85781 40.99021,0 79.52655,-4.66865 113.01829,-12.85781"
       style="display:inline;fill:none;stroke:#000000;stroke-width:2.4859314;stroke-linecap:round;stroke-linejoin:round;stroke-miterlimit:4;stroke-dasharray:none;stroke-opacity:1"
       inkscape:connector-curvature="0" />
    <path
       inkscape:connector-curvature="0"
       id="path698"
       style="fill:#383b46;fill-opacity:1;fill-rule:nonzero;stroke:#000000;stroke-width:2.5;stroke-miterlimit:4;stroke-dasharray:none;stroke-opacity:1"
       d="m 281.24729,428.1122 c 0.0986,-0.0667 0.1969,-0.1334 0.29496,-0.19984 0.0967,-0.0654 0.19507,-0.13215 0.29358,-0.19886 5.49484,-3.72235 11.98433,-7.95729 13.24773,-8.45934 0.63753,-0.26722 1.36476,-0.40948 2.10238,-0.41075 1.54419,-0.003 2.95514,0.5883 3.77452,1.58108 l 0.0277,0.034 0.004,0.003 0,0 0,0 0.005,0.006 0,0 0,0 0.0263,0.0389 0.11793,0.17413 0.93643,1.38274 35.84718,52.93277 0.34109,0.50367 0.59534,0.87909 c 0.77093,1.1411 0.86356,2.81149 0.24212,4.35916 -0.27523,0.68539 -0.67859,1.30969 -1.16624,1.80524 -0.93873,0.98858 -7.27503,5.44167 -12.76476,9.16055 l -0.29475,0.19968 -0.2938,0.19903 c -5.48961,3.71879 -11.976,7.95194 -13.24508,8.45821 -0.63828,0.26801 -1.36647,0.41045 -2.1052,0.4118 -1.6675,0.003 -3.18363,-0.7025 -3.95664,-1.841 l -0.59616,-0.88029 -0.34108,-0.50366 -35.84722,-52.9328 -0.93642,-1.38276 -0.11793,-0.17413 -0.0244,-0.0362 -0.003,-0.003 -0.003,-0.003 -0.003,-0.004 -0.004,-0.006 -0.0225,-0.0414 c -0.61755,-1.12881 -0.64277,-2.6585 -0.0675,-4.09151 0.27465,-0.68408 0.67707,-1.30746 1.16373,-1.80297 0.9312,-0.98388 7.27105,-5.43956 12.76731,-9.16287"
       transform="translate(0,52.36217)" />
    <g
       style="fill:#e9c6af"
       id="g3286"
       transform="matrix(0.78602808,-0.37411999,-0.35187295,-0.73928693,343.1214,590.25984)">
      <path
         inkscape:connector-curvature="0"
         id="path3289"
         d="m 27.1875,77 c -0.312425,-0.0044 -0.599637,0.0301 -0.90625,0.09375 -4.050233,0.840797 -6.237919,7.484629 -5.625,15.8125 -2.650491,-1.666813 -5.487572,-3.195019 -8.53125,-4.53125 -20.8392527,-9.148813 -42.364448,-6.095391 -48.03125,6.8125 -5.666801,12.9079 6.660748,30.81994 27.5,39.96875 11.3494384,4.98261 24.590539,7.74039 33.619796,9.85359 8.799354,2.0594 17.74459,-16.05541 20.325146,-21.93343 2.213595,-5.04215 -4.266099,-5.57975 -6.976192,-11.32641 1.687162,-3.97725 2.032307,-10.28331 0.625,-17.0625 C 37.099983,84.631649 31.873873,77.065732 27.1875,77 z"
         style="fill:#e9c6af;fill-opacity:1;stroke:#000000;stroke-width:2.96123934;stroke-linecap:round;stroke-linejoin:round;stroke-miterlimit:4;stroke-opacity:1;stroke-dasharray:none"
         sodipodi:nodetypes="cscssssscsc" />
      <path
         sodipodi:open="true"
         sodipodi:end="3.502584"
         sodipodi:start="3.0456945"
         inkscape:transform-center-y="2.1538162"
         inkscape:transform-center-x="-14.769025"
         transform="matrix(0.9791251,-0.2032588,0.2241058,1.0795481,-19.542562,4.5762255)"
         d="m 20.964491,92.406756 a 9.0767965,17.99975 0 0 1 0.54332,-8.081043"
         sodipodi:ry="17.99975"
         sodipodi:rx="9.0767965"
         sodipodi:cy="90.683258"
         sodipodi:cx="29.999582"
         id="path3291"
         style="fill:#e9c6af;fill-opacity:1;stroke:#000000;stroke-width:2.82014608;stroke-linecap:round;stroke-linejoin:round;stroke-miterlimit:4;stroke-opacity:1;stroke-dasharray:none;display:inline"
         sodipodi:type="arc" />
    </g>
    <path
       transform="matrix(-0.74945064,-0.66206022,0.57749116,-0.81639694,0,0)"
       style="fill:#ffffff;fill-opacity:1;stroke:#000000;stroke-width:2.50730276;stroke-linecap:round;stroke-linejoin:round;stroke-miterlimit:4;stroke-dasharray:none;stroke-opacity:1"
       d="m -573.99428,-146.27267 59.72278,0 -5.91544,37.25734 -59.72278,0 z"
       id="rect3299"
       inkscape:connector-curvature="0"
       sodipodi:nodetypes="ccccc" />
    <g
       style="fill:#e9c6af"
       transform="matrix(-0.78602808,-0.37411999,0.35187295,-0.73928693,856.8786,589.6874)"
       id="g4050">
      <path
         sodipodi:nodetypes="cscssssscsc"
         style="fill:#e9c6af;fill-opacity:1;stroke:#000000;stroke-width:2.96123934;stroke-linecap:round;stroke-linejoin:round;stroke-miterlimit:4;stroke-opacity:1;stroke-dasharray:none"
         d="m 27.1875,77 c -0.312425,-0.0044 -0.599637,0.0301 -0.90625,0.09375 -4.050233,0.840797 -6.237919,7.484629 -5.625,15.8125 -2.650491,-1.666813 -5.487572,-3.195019 -8.53125,-4.53125 -20.8392527,-9.148813 -42.364448,-6.095391 -48.03125,6.8125 -5.666801,12.9079 6.660748,30.81994 27.5,39.96875 11.3494384,4.98261 24.590539,7.74039 33.619796,9.85359 8.799354,2.0594 17.74459,-16.05541 20.325146,-21.93343 2.213595,-5.04215 -4.266099,-5.57975 -6.976192,-11.32641 1.687162,-3.97725 2.032307,-10.28331 0.625,-17.0625 C 37.099983,84.631649 31.873873,77.065732 27.1875,77 z"
         id="path4052"
         inkscape:connector-curvature="0" />
      <path
         sodipodi:type="arc"
         style="fill:#e9c6af;fill-opacity:1;stroke:#000000;stroke-width:2.82014608;stroke-linecap:round;stroke-linejoin:round;stroke-miterlimit:4;stroke-opacity:1;stroke-dasharray:none;display:inline"
         id="path4054"
         sodipodi:cx="29.999582"
         sodipodi:cy="90.683258"
         sodipodi:rx="9.0767965"
         sodipodi:ry="17.99975"
         d="m 20.964491,92.406756 a 9.0767965,17.99975 0 0 1 0.54332,-8.081043"
         transform="matrix(0.9791251,-0.2032588,0.2241058,1.0795481,-19.542562,4.5762255)"
         inkscape:transform-center-x="-14.769025"
         inkscape:transform-center-y="2.1538162"
         sodipodi:start="3.0456945"
         sodipodi:end="3.502584"
         sodipodi:open="true" />
    </g>
    <path
       style="fill:none;stroke:#000000;stroke-width:2.5;stroke-linecap:butt;stroke-linejoin:miter;stroke-miterlimit:4;stroke-opacity:1;stroke-dasharray:none"
       d="m 598.74675,265.80711 0,288.224"
       id="path4064"
       inkscape:connector-curvature="0" />
    <path
       style="fill:#1a1a1a;fill-opacity:1;stroke:#000000;stroke-width:2.49999952;stroke-linecap:round;stroke-linejoin:round;stroke-miterlimit:4;stroke-opacity:1;display:inline"
       d="m 669.26762,147.12971 c 0,13.49018 -36.96164,24.42613 -69.79025,24.42613 -32.8286,0 -69.79025,-10.93595 -69.79025,-24.42613 0,-13.49017 15.88222,-24.42611 69.79025,-24.42611 53.90804,0 69.79025,10.93594 69.79025,24.42611 z"
       id="path2404-1"
       inkscape:connector-curvature="0"
       sodipodi:nodetypes="szszs" />
    <path
       style="fill:#1a1a1a;fill-opacity:1;stroke:#000000;stroke-width:2.49999976;stroke-linecap:round;stroke-linejoin:round;stroke-miterlimit:4;stroke-opacity:1;display:inline"
       d="m 560.07252,95.178388 -4.90625,39.294062 0.0937,0 c -0.0507,0.41942 -0.0937,0.82193 -0.0937,1.25 0,8.68014 23.47578,15.71875 44.3125,15.71875 20.83675,0 44.28125,-7.03861 44.28125,-15.71875 0,-0.91179 -0.105,-1.78698 -0.34375,-2.65625 l -4.53125,-37.887812 c 0,0 -25.6937,-5.26769 -38.11808,-5.36669 -13.88139,-0.110609 -40.69442,5.36669 -40.69442,5.36669 z"
       id="path3905"
       inkscape:connector-curvature="0"
       sodipodi:nodetypes="cccsssccsc" />
    <path
       style="fill:none;stroke:#000000;stroke-width:2.5;stroke-linecap:butt;stroke-linejoin:miter;stroke-miterlimit:4;stroke-opacity:1;stroke-dasharray:none"
       d="m 560.07252,95.178388 c 0,0 20.57441,9.913872 39.40625,9.913872 18.83184,0 39.40625,-9.913872 39.40625,-9.913872"
       id="path3996"
       inkscape:connector-curvature="0"
       sodipodi:nodetypes="czc" />
    <path
       style="fill:#1a1a1a;stroke:#000000;stroke-width:2.5;stroke-linecap:butt;stroke-linejoin:miter;stroke-miterlimit:4;stroke-opacity:1;stroke-dasharray:none"
       d="m 590.01947,264.68823 18.57345,-0.44756 9.17483,-0.22377 -10.99027,20.8112 -16.07736,0 -10.73775,-19.99557 z"
       id="path4066"
       inkscape:connector-curvature="0"
       sodipodi:nodetypes="ccccccc" />
    <path
       inkscape:connector-curvature="0"
       style="fill:#ffffff;fill-opacity:1;stroke:#000000;stroke-width:2.5;stroke-linecap:round;stroke-linejoin:round;stroke-miterlimit:4;stroke-opacity:1;display:inline"
       d="m 640.63694,230.63364 c -0.46307,9.80812 -16.80117,27.73545 -32.81852,28.94736 l 7.93224,20.47731 c 19.62692,-2.35109 20.97126,-17.50311 27.53036,-32.47279 l -2.64408,-16.95188 z"
       id="path2437"
       sodipodi:nodetypes="ccccc" />
    <path
       inkscape:connector-curvature="0"
       style="display:inline;fill:#ffffff;fill-opacity:1;stroke:#000000;stroke-width:2.5;stroke-linecap:round;stroke-linejoin:round;stroke-miterlimit:4;stroke-opacity:1"
       d="m 554.81177,231.56655 c 0.46307,9.80812 16.80117,27.73545 32.81852,28.94736 l -7.93224,20.47731 c -19.62692,-2.35109 -20.97126,-17.50311 -27.53036,-32.47279 l 2.64408,-16.95188 z"
       id="rect3391"
       sodipodi:nodetypes="ccccc" />
    <path
       style="fill:#1a1a1a;stroke:#000000;stroke-width:2.5;stroke-linecap:butt;stroke-linejoin:miter;stroke-miterlimit:4;stroke-opacity:1;stroke-dasharray:none"
       d="m 590.70012,284.8281 -10.75058,225.79039 18.79721,18.79721 16.1119,-16.1119 -8.08117,-228.4757 z"
       id="path4070"
       inkscape:connector-curvature="0" />
    <path
       style="fill:#ffffff;stroke:#000000;stroke-width:2.5;stroke-linecap:butt;stroke-linejoin:miter;stroke-miterlimit:4;stroke-opacity:1;stroke-dasharray:none"
       d="m 559.57734,131.26192 3.51954,-26.85532 16.27752,4.63841 -4.00548,28.84683 z"
       id="path4072"
       inkscape:connector-curvature="0"
       sodipodi:nodetypes="ccccc" />
    <path
       style="fill:#222222;fill-opacity:1;stroke:#000000;stroke-width:2.49999976;stroke-linecap:round;stroke-linejoin:round;stroke-miterlimit:4;stroke-opacity:1;display:inline"
       d="m 556.66627,122.47245 -1.5,12 0.0937,0 c -0.0507,0.41942 -0.0937,0.82193 -0.0937,1.25 0,8.68014 23.47578,15.71875 44.3125,15.71875 20.83675,0 44.28125,-7.03861 44.28125,-15.71875 0,-0.91179 -0.105,-1.78698 -0.34375,-2.65625 l -1.25,-10.46875 c -5.60695,6.7977 -25.07611,11.84375 -42.6875,11.84375 -17.71989,0 -37.3368,-5.10734 -42.8125,-11.96875 z"
       id="path4000"
       inkscape:connector-curvature="0" />
    <ellipse
       transform="matrix(0.71074872,0.10917325,-0.07869985,0.62911963,936.9265,132.24254)"
       id="path4092"
       style="fill:#000000;fill-opacity:1;stroke:none"
       cx="-511.77661"
       cy="61.368412"
       rx="1.5664347"
       ry="2.0699317" />
    <path
       style="fill:#000000;stroke:none"
       d="m 569.0707,113.50725 c 0,0 0.43521,1.8177 0.13812,2.56277 -0.29707,0.74508 -0.69566,1.07921 -0.69566,1.07921 l 1.39714,0.34168 c 0,0 -0.29949,-1.43802 0.005,-2.17377 0.19571,-0.47384 0.80633,-1.5564 0.80633,-1.5564 z"
       id="path4096"
       inkscape:connector-curvature="0"
       sodipodi:nodetypes="csccscc" />
    <ellipse
       style="fill:#000000;fill-opacity:1;stroke:none"
       id="path3050"
       transform="matrix(0.71074872,0.10917325,-0.07869985,0.62911963,938.4832,130.39193)"
       cx="-511.77661"
       cy="61.368412"
       rx="1.5664347"
       ry="2.0699317" />
    <ellipse
       style="fill:#000000;fill-opacity:1;stroke:none"
       id="path3052"
       transform="matrix(0.71074872,0.10917325,-0.07869985,0.62911963,939.4449,132.68587)"
       cx="-511.77661"
       cy="61.368412"
       rx="1.5664347"
       ry="2.0699317" />
    <path
       style="fill:#800000;stroke:#000000;stroke-width:2.5;stroke-linecap:butt;stroke-linejoin:miter;stroke-miterlimit:4;stroke-opacity:1;stroke-dasharray:none"
       d="m 863.4724,535.60873 -2.902,10.83029 c 0,0 -0.066,3.58042 2.7414,3.58042 2.8077,0 2.6924,-3.58042 2.6924,-3.58042 z"
       id="path3033"
       inkscape:connector-curvature="0"
       sodipodi:nodetypes="cczcc" />
    <path
       sodipodi:nodetypes="ccccc"
       inkscape:connector-curvature="0"
       id="path4229"
       d="m 851.87668,501.38226 44.75927,-39.54008 -25.94911,-26.5004 -44.75928,39.54008 z"
       style="fill:#ffffff;fill-opacity:1;stroke:#000000;stroke-width:2.49999976;stroke-linecap:round;stroke-linejoin:round;stroke-miterlimit:4;stroke-dasharray:none;stroke-opacity:1" />
    <path
       sodipodi:nodetypes="ccccccsc"
       style="fill:#1a1a1a;fill-opacity:1;stroke:#000000;stroke-width:2.5;stroke-miterlimit:4;stroke-dasharray:none;stroke-opacity:1"
       d="m 692.07747,263.51735 -49.57931,-11.65323 -9.16602,23.21033 23.75,366.84602 88.1875,3.125 -30.71506,-253.08806 c 0,0 -16.25896,-15.85631 -18.16189,-34.88563 -2.51751,-25.1751 -3.07319,-64.77335 -4.31522,-93.55443 z"
       id="path4233"
       inkscape:connector-curvature="0" />
    <path
       inkscape:connector-curvature="0"
       id="path4235"
       d="m 502.20384,263.51735 49.57931,-11.65323 9.16602,23.21033 -23.75,366.84602 -88.1875,3.125 30.71506,-253.08806 c 0,0 16.25896,-15.85631 18.16189,-34.88563 2.51751,-25.1751 3.07319,-64.77335 4.31522,-93.55443 z"
       style="fill:#1a1a1a;fill-opacity:1;stroke:#000000;stroke-width:2.5;stroke-miterlimit:4;stroke-dasharray:none;stroke-opacity:1"
       sodipodi:nodetypes="ccccccsc" />
  </g>
  <g
     inkscape:groupmode="layer"
     id="layer3"
     inkscape:label="stats"
     transform="translate(0,-52.36217)">
    <path
       style="fill:none;stroke:#000000;stroke-width:1px;stroke-linecap:butt;stroke-linejoin:miter;stroke-opacity:1"
       d="m 552.20405,110.72204 -20.5704,-20.570398 -92.09207,0"
       id="path3025"
       inkscape:connector-curvature="0" />
    <path
       style="fill:none;stroke:#000000;stroke-width:1px;stroke-linecap:butt;stroke-linejoin:miter;stroke-opacity:1"
       d="m 439.76611,626.96902 -18.03866,18.03866 -85.76272,0"
       id="path3031"
       inkscape:connector-curvature="0" />
    <path
       style="fill:none;stroke:#000000;stroke-width:1px;stroke-linecap:butt;stroke-linejoin:miter;stroke-opacity:1"
       d="m 870.5,556.48718 23.5,23.5 94.4878,0"
       id="path3806"
       inkscape:connector-curvature="0"
       sodipodi:nodetypes="ccc" />
    <path
       style="fill:none;stroke:#000000;stroke-width:1px;stroke-linecap:butt;stroke-linejoin:miter;stroke-opacity:1"
       d="m 650.29289,120.09273 24,-23.999997 150,0"
       id="path3808"
       inkscape:connector-curvature="0" />
    <path
       style="fill:none;stroke:#000000;stroke-width:1px;stroke-linecap:butt;stroke-linejoin:miter;stroke-opacity:1"
       d="m 459.5,984.48718 -21.5,-21.5 -83.5,0"
       id="path3810"
       inkscape:connector-curvature="0"
       sodipodi:nodetypes="ccc" />
    <path
       style="fill:none;stroke:#000000;stroke-width:1px;stroke-linecap:butt;stroke-linejoin:miter;stroke-opacity:1"
       d="m 729.5,711.98718 29.5,29.5 145.5,0"
       id="path3812"
       inkscape:connector-curvature="0" />
    <text
       xml:space="preserve"
       class="start-align"
       x="999.0459"
       y="585.97333"
       id="text3814"
       sodipodi:linespacing="125%"><tspan
         sodipodi:role="line"
         id="tspan3816"
         x="999.0459"
         y="585.97333">Blood type: O+</tspan></text>
    <text
       xml:space="preserve"
       class="start-align"
       x="830.32678"
       y="102.83665"
       id="text3824"
       sodipodi:linespacing="125%"><tspan
         sodipodi:role="line"
         id="tspan3826"
         x="830.32678"
         y="102.83665">MBTI: ENTP</tspan></text>
    <text
       xml:space="preserve"
       class="end-align"
       x="332.98477"
       y="639.81396"
       id="text3828"
       sodipodi:linespacing="125%"><tspan
         sodipodi:role="line"
         id="tspan3830"
         x="332.98477"
         y="639.81396">SCOTTeVEST</tspan><tspan
         sodipodi:role="line"
         x="332.98477"
         y="664.81396"
         id="tspan3832">Q.U.E.S.T. Vest for Men XXLT</tspan></text>
    <path
       style="fill:none;stroke:#000000;stroke-width:1px;stroke-linecap:butt;stroke-linejoin:miter;stroke-opacity:1"
       d="m 527.33138,160.39886 -20,20 -71,0"
       id="path3834"
       inkscape:connector-curvature="0"
       sodipodi:nodetypes="ccc" />
    <text
       xml:space="preserve"
       class="end-align"
       x="425.74686"
       y="188.41815"
       id="text3836"
       sodipodi:linespacing="125%"><tspan
         sodipodi:role="line"
         id="tspan3838"
         x="425.74686"
         y="188.41815">Scala DF109 XL</tspan></text>
    <text
       xml:space="preserve"
       class="end-align"
       x="436.29156"
       y="85.936844"
       id="text3840"
       sodipodi:linespacing="125%"><tspan
         sodipodi:role="line"
         id="tspan3842"
         x="436.29156"
         y="85.936844">Bicycle TRD10-18425</tspan><tspan
         sodipodi:role="line"
         x="436.29156"
         y="110.93684"
         id="tspan3837">Prestige Plastic 2 of Clubs</tspan></text>
    <text
       xml:space="preserve"
       class="end-align"
       x="341.62207"
       y="956.21509"
       id="text3844"
       sodipodi:linespacing="125%"><tspan
         sodipodi:role="line"
         id="tspan3846"
         x="341.62207"
         y="956.21509">Timberland 89624 Size 10 D(M) US</tspan><tspan
         sodipodi:role="line"
         x="341.62207"
         y="981.21509"
         id="tspan3848">PRO Five Star Regent Demi Boot</tspan></text>
    <text
       xml:space="preserve"
       class="start-align"
       x="911.7605"
       y="736.26923"
       id="text3852"
       sodipodi:linespacing="125%"><tspan
         sodipodi:role="line"
         id="tspan3854"
         x="911.7605"
         y="736.26923">Birthdate:</tspan><tspan
         sodipodi:role="line"
         x="911.7605"
         y="761.26923"
         id="tspan3856">June 28 1989</tspan></text>
    <path
       inkscape:connector-curvature="0"
       id="path3858"
       d="m 793.98503,338.31439 36.06237,-36.06245 95.4595,0"
       style="fill:none;stroke:#000000;stroke-width:1px;stroke-linecap:butt;stroke-linejoin:miter;stroke-opacity:1"
       sodipodi:nodetypes="ccc" />
    <text
       xml:space="preserve"
       class="start-align"
       x="933.85522"
       y="295.88797"
       id="text3860"
       sodipodi:linespacing="125%"><tspan
         sodipodi:role="line"
         id="tspan3862"
         x="933.85522"
         y="295.88797">Typing speed:</tspan><tspan
         sodipodi:role="line"
         x="933.85522"
         y="320.88797"
         id="tspan3864">44 WPM</tspan></text>
    <g id="hair-label-group" transform="translate(0,0)">
      <text
         sodipodi:linespacing="125%"
         class="start-align"
         id="text3831"
         y="174.59441"
         x="757.36169"
         xml:space="preserve"><tspan
           y="174.59441"
           x="757.36169"
           id="tspan3833"
           sodipodi:role="line">Hair length:</tspan><tspan
           y="199.59441"
           x="757.36169"
           sodipodi:role="line"
           id="hairlength">16 mm</tspan></text>
      <path
         style="fill:none;stroke:#000000;stroke-width:1px;stroke-linecap:butt;stroke-linejoin:miter;stroke-opacity:1;display:inline"
         d="m 752.64117,179.97309 -82,0 -13.25,-13.25"
         id="path3829"
         inkscape:connector-curvature="0" />
    </g>
    <path
       style="fill:none;stroke:#000000;stroke-width:1px;stroke-linecap:butt;stroke-linejoin:miter;stroke-opacity:1"
       d="m 275.71751,473.1906 -17,-17 -45.90812,0"
       id="path3878"
       inkscape:connector-curvature="0"
       sodipodi:nodetypes="ccc" />
    <text
       xml:space="preserve"
       class="end-align"
       x="208.57727"
       y="453.19061"
       id="text3880"
       sodipodi:linespacing="125%"
       style="font-style:normal;font-variant:normal;font-weight:normal;font-stretch:normal;font-size:20px;line-height:125%;text-align:end;letter-spacing:0px;word-spacing:0px;text-anchor:end;fill:#000000;fill-opacity:1;stroke:none"><tspan
         sodipodi:role="line"
         id="tspan3882"
         x="208.57727"
         y="453.19061">Motorola Nexus 6</tspan><tspan
         sodipodi:role="line"
         x="208.57727"
         y="478.19061"
         id="tspan3884">XT1103 32GB P3A0</tspan></text>
  </g>
</svg>
